<svg width="68" height="68" viewBox="0 0 68 68" fill="none" xmlns="http://www.w3.org/2000/svg">
<rect opacity="0.2" width="68" height="68" rx="10" fill="#76DE84"/>
<path fill-rule="evenodd" clip-rule="evenodd" d="M33.4665 40C31.9201 40 30.6665 41.2536 30.6665 42.8V47.0667C30.6665 47.5821 31.0844 48 31.5998 48H36.3998C36.9153 48 37.3332 47.5821 37.3332 47.0667V42.8C37.3332 41.2536 36.0796 40 34.5332 40H33.4665Z" fill="#76DE84"/>
<path fill-rule="evenodd" clip-rule="evenodd" d="M38.6667 47.1765V42.7843C38.6667 40.5102 36.5878 38.6667 34.3137 38.6667H33.6863C31.4122 38.6667 29.3333 40.5102 29.3333 42.7843V47.1765C29.3333 47.4652 29.3829 47.7424 29.4739 48H27.4118C25.1377 48 23.2941 46.1565 23.2941 43.8824V31.2855L21.3658 32.9727C21.0235 33.2722 20.5033 33.2375 20.2038 32.8952C19.9043 32.5529 19.939 32.0327 20.2812 31.7332L33.4577 20.2038C33.7682 19.9321 34.2318 19.9321 34.5423 20.2038L47.7188 31.7332C48.061 32.0327 48.0957 32.5529 47.7962 32.8952C47.4967 33.2375 46.9765 33.2722 46.6342 32.9727L44.7059 31.2855V43.8824C44.7059 46.1565 42.8623 48 40.5882 48H38.5261C38.6171 47.7424 38.6667 47.4652 38.6667 47.1765Z" fill="#76DE84"/>
</svg>
