<svg width="68" height="68" viewBox="0 0 68 68" fill="none" xmlns="http://www.w3.org/2000/svg">
<rect opacity="0.2" width="68" height="68" rx="10" fill="#FF7132"/>
<path d="M44.4998 42.1667H46.8332V44.5H21.1665V42.1667H23.4998V24.6667C23.4998 24.3572 23.6228 24.0605 23.8415 23.8417C24.0603 23.6229 24.3571 23.5 24.6665 23.5H36.3332C36.6426 23.5 36.9393 23.6229 37.1581 23.8417C37.3769 24.0605 37.4998 24.3572 37.4998 24.6667V42.1667H39.8332V30.5H43.3332C43.6426 30.5 43.9393 30.6229 44.1581 30.8417C44.3769 31.0605 44.4998 31.3572 44.4998 31.6667V42.1667ZM28.1665 32.8333V35.1667H32.8332V32.8333H28.1665ZM28.1665 28.1667V30.5H32.8332V28.1667H28.1665Z" fill="#FF7132"/>
</svg>
