<svg width="68" height="68" viewBox="0 0 68 68" fill="none" xmlns="http://www.w3.org/2000/svg">
<rect opacity="0.2" width="68" height="68" rx="10" fill="#F7D16D"/>
<path d="M22.3337 42.1667V29.3333H21.167V27H24.667V24.6667C24.667 24.3572 24.7899 24.0605 25.0087 23.8417C25.2275 23.6229 25.5242 23.5 25.8337 23.5H42.167C42.4764 23.5 42.7732 23.6229 42.992 23.8417C43.2107 24.0605 43.3337 24.3572 43.3337 24.6667V27H46.8337V29.3333H45.667V42.1667H46.8337V44.5H21.167V42.1667H22.3337ZM35.167 42.1667V34H32.8337V42.1667H35.167ZM29.3337 42.1667V34H27.0003V42.1667H29.3337ZM41.0003 42.1667V34H38.667V42.1667H41.0003ZM27.0003 25.8333V27H41.0003V25.8333H27.0003Z" fill="#F7D16D"/>
</svg>
